<?xml version="1.0" encoding="utf-8"?>
<!-- Generator: Adobe Illustrator 21.0.2, SVG Export Plug-In . SVG Version: 6.00 Build 0)  -->
<svg version="1.1" id="Layer_1" xmlns="http://www.w3.org/2000/svg" xmlns:xlink="http://www.w3.org/1999/xlink" x="0px" y="0px"
	 width="33px" height="38px" viewBox="0 0 33 38" style="enable-background:new 0 0 33 38;" xml:space="preserve">
<style type="text/css">
	.st0{fill:#B0B0B0;}
</style>
<title>advanced-thread-filter</title>
<g id="Layer_2">
	<g id="Layer_1-2">
		<path class="st0" d="M16.5,38l-0.2-0.1C15.6,37.7,0,32.7,0,24V4.6L16.5,0L33,4.6V24c0,8.8-15.6,13.8-16.3,14H16.5z M1.5,5.8V24
			c0,7.1,13,11.7,15,12.4c2-0.7,15-5.3,15-12.4V5.8l-15-4.2L1.5,5.8z"/>
		<polygon class="st0" points="14.6,21.3 14.5,21.2 14.4,21.3 10.8,17.6 9.3,19 14.4,24.3 14.5,24.2 14.6,24.3 23.7,15.3 22.2,13.8 
					"/>
	</g>
</g>
</svg>
