<?xml version="1.0" encoding="utf-8"?>
<!-- Generator: Adobe Illustrator 16.0.0, SVG Export Plug-In . SVG Version: 6.00 Build 0)  -->
<svg  version="1.2" baseProfile="tiny" id="Layer_1" xmlns="http://www.w3.org/2000/svg" xmlns:xlink="http://www.w3.org/1999/xlink"
	 viewBox="0 0 87.3 12.3">
<path fill="rgb(255,255,255)" d="M39.146,8.195c0-2.615-1.685-4.086-3.914-4.086c-2.411,0-4.168,1.582-4.168,3.947
	c0,2.364,1.847,3.945,4.516,3.945c0.779,0,1.509-0.128,2.13-0.371l1.138-1.787l-0.151-0.076c-0.978,0.482-2.007,0.73-2.937,0.73
	c-1.376,0-2.566-0.658-2.7-1.785h6.086V8.195z M33.06,7.305c0.15-1.082,0.882-1.786,2.063-1.786c1.248,0,2.013,0.689,2.029,1.786
	H33.06z M76.694,4.109c-2.414,0-4.17,1.582-4.17,3.947c0,2.364,1.848,3.945,4.517,3.945c0.778,0,1.509-0.128,2.128-0.371l1.14-1.787
	l-0.151-0.076c-0.977,0.482-2.007,0.73-2.938,0.73c-1.376,0-2.564-0.658-2.698-1.785h6.084C80.871,5.768,79.189,4.109,76.694,4.109z
	 M74.521,7.305c0.146-1.082,0.881-1.786,2.06-1.786c1.248,0,2.014,0.689,2.03,1.786H74.521z M48.807,4.109
	c-2.409,0-4.167,1.582-4.167,3.947c0,2.364,1.847,3.945,4.516,3.945c0.78,0,1.509-0.128,2.131-0.371l1.136-1.787l-0.15-0.076
	c-0.978,0.482-2.006,0.73-2.937,0.73c-1.375,0-2.565-0.658-2.699-1.785h6.087C52.987,5.768,51.305,4.109,48.807,4.109z
	 M46.636,7.305c0.149-1.082,0.881-1.786,2.061-1.786c1.248,0,2.015,0.689,2.029,1.786H46.636z M7.573,5.973V5.941
	c1.215-0.344,2.045-1.174,2.045-2.427c0-2.02-1.831-2.787-3.606-2.787H1.71V0.726h-1.713v0.165l0.604,0.483
	C1.326,1.93,1.419,2.039,1.419,2.542v9.274h4.243c2.226,0,4.457-0.752,4.457-3.165C10.119,7.227,9.052,6.129,7.573,5.973z
	 M3.517,2.418h1.728c1.17,0,1.531,0.152,1.885,0.469C7.4,3.127,7.523,3.458,7.524,3.843c0,0.358-0.13,0.678-0.407,0.927
	c-0.346,0.313-0.821,0.466-1.69,0.466h-1.91V2.418z M5.445,10.123H3.517V6.928h2.011c1.696,0,2.495,0.407,2.495,1.566
	C8.023,9.951,6.524,10.123,5.445,10.123z M14.081,1.745c0,0.641-0.567,1.127-1.298,1.127c-0.733,0-1.264-0.534-1.264-1.127
	c0-0.596,0.531-1.129,1.264-1.129C13.513,0.615,14.081,1.102,14.081,1.745z M10.728,4.298h3.07v7.518H11.8V5.9h-0.001
	c0-0.621-0.036-0.721-0.752-1.242l-0.318-0.237V4.298z M26.613,0.261v0.138l0.625,0.379c0.57,0.341,0.657,0.504,0.657,0.983v3.491
	h-0.05c-0.415-0.485-1.214-1.143-2.711-1.143c-2.278,0-3.858,1.722-3.858,3.947c0,2.224,1.481,3.945,3.943,3.945
	c1.113,0,2.162-0.406,2.744-1.313h0.033l0.209,1.126h1.687V0.261H26.613z M25.616,10.311c-1.463,0-2.346-1.08-2.346-2.254
	c0-1.175,0.883-2.256,2.346-2.256c1.465,0,2.346,1.081,2.346,2.256C27.962,9.23,27.081,10.311,25.616,10.311z M68.007,0.261v0.138
	l0.277,0.174c0.963,0.572,1.081,0.738,1.081,1.718v2.96h-0.05c-0.418-0.485-1.215-1.143-2.71-1.143
	c-2.279,0-3.859,1.722-3.859,3.947c0,2.224,1.48,3.945,3.94,3.945c1.115,0,2.164-0.406,2.744-1.313h0.032l0.212,1.126h1.685V0.261
	H68.007z M67.086,10.311c-1.462,0-2.345-1.08-2.345-2.254c0-1.175,0.883-2.256,2.345-2.256c1.464,0,2.345,1.081,2.345,2.256
	C69.431,9.23,68.55,10.311,67.086,10.311z M87.003,4.218v1.817c-0.332-0.079-0.646-0.142-0.965-0.142
	c-1.878,0-2.145,1.489-2.145,1.897v4.024h-1.995V6.26c0-0.946-0.054-1.087-0.864-1.571l-0.501-0.313l-0.007-0.083h3.367v1.194h0.035
	c0.431-0.861,1.313-1.378,2.36-1.378C86.538,4.109,86.771,4.156,87.003,4.218z M42.691,4.267h1.854V5.87h-1.854v5.946h-2.003V6.519
	c0-0.63-0.134-0.769-0.928-1.36L38.742,4.38V4.267h1.946V2.895c0-2.04,1.412-3.334,4.471-2.76l0.463,1.592L45.526,1.8
	c-1.599-0.591-2.835-0.213-2.835,1.101V4.267z M61.605,7.068v4.747h-1.997V7.633c0-0.829-0.223-1.832-1.62-1.832
	c-1.313,0-1.829,0.908-1.829,1.91v4.104h-1.994V6.26c0-0.946-0.054-1.087-0.867-1.571l-0.5-0.313V4.293h1.561v0.004h1.701v1.146
	h0.033c0.656-0.921,1.655-1.334,2.539-1.334C60.518,4.109,61.605,5.325,61.605,7.068z M20.656,10.305l0.066,0.038
	c0,0-0.992,1.495-0.99,1.495c-1.627,0.414-3.456-0.027-3.456-2.484v-3.46l-0.002,0.413c0-0.484-0.083-0.46-1.203-1.329l-0.725-0.59
	v-0.09h1.939l0.728-2.178h1.267v2.178h2.133v1.596h-2.133v3.408C18.281,10.659,19.266,10.69,20.656,10.305z"/>
</svg>
