<?xml version="1.0" encoding="utf-8"?>
<!-- Generator: Adobe Illustrator 21.1.0, SVG Export Plug-In . SVG Version: 6.00 Build 0)  -->
<svg version="1.1" id="Layer_1" xmlns="http://www.w3.org/2000/svg" xmlns:xlink="http://www.w3.org/1999/xlink" x="0px" y="0px"
	 viewBox="0 0 17 17" style="enable-background:new 0 0 17 17;" xml:space="preserve">
<style type="text/css">
	.st0{fill:#FFFFFF;}
</style>
<title>close</title>
<g id="Layer_2">
	<g id="Layer_1-2">
		<path class="st0" d="M10.3,8.5l5.4-5.3c0.5-0.5,0.4-1.3-0.1-1.8c-0.5-0.4-1.2-0.4-1.7,0L8.5,6.7L3.1,1.4C2.6,0.9,1.8,0.9,1.3,1.5
			c-0.4,0.5-0.4,1.2,0,1.7l5.4,5.3l-5.4,5.4c-0.5,0.5-0.4,1.3,0.1,1.8c0.5,0.4,1.2,0.4,1.7,0l5.4-5.4l5.4,5.3
			c0.5,0.5,1.3,0.4,1.8-0.1c0.4-0.5,0.4-1.2,0-1.7L10.3,8.5z"/>
	</g>
</g>
</svg>
