<?xml version="1.0" encoding="UTF-8"?>
<svg width="64px" height="65px" viewBox="0 0 64 65" version="1.1" xmlns="http://www.w3.org/2000/svg" xmlns:xlink="http://www.w3.org/1999/xlink">
    <!-- Generator: Sketch 50.2 (55047) - http://www.bohemiancoding.com/sketch -->
    <title>bdf-logo copy</title>
    <desc>Created with Sketch.</desc>
   
    <g id="blocked-copy-2" stroke="none" stroke-width="1" fill="none" fill-rule="evenodd">
        <g id="win-/-mac-_" transform="translate(-398.000000, -119.000000)">
            <g id="bdf-logo-copy" transform="translate(400.000000, 121.500000)">
                <g id="BDF" filter="url(#filter-1)">
                    <rect id="Rectangle-6" fill="#D0021B" x="0.621118012" y="0.297162343" width="59.1428571" height="59.2436975" rx="6"></rect>
                    <path d="M31.6269018,41.9678442 L26.2530397,41.9678442 L26.2530397,32.3263198 L31.8551708,32.3263198 C36.5844677,32.3263198 38.8114783,33.5543962 38.8114783,37.0542686 C38.8114783,41.4487061 34.6327329,41.9678442 31.6269018,41.9678442 Z M26.2530397,18.6548978 L31.0848496,18.6548978 C34.3607528,18.6548978 35.3681894,19.1127047 36.3591475,20.0624315 C37.116286,20.7873377 37.4569549,21.7829723 37.4619852,22.9433665 C37.4619852,24.0184777 37.0978996,24.9818136 36.3239358,25.7319418 C35.3548332,26.6700557 34.027369,27.131673 31.5965468,27.131673 L26.2530397,27.131673 L26.2530397,18.6548978 Z M37.6021382,29.4063724 L37.6021382,29.3091134 C41.0013692,28.2608573 43.2720909,25.7484541 43.2720909,21.9406553 C43.2720909,15.8017252 38.1981354,13.4669648 33.2303355,13.4669648 L21.1908793,13.4669648 L21.1908793,13.4624284 L16.3984441,13.4624284 L16.3925466,13.9931795 L18.0844432,15.4317418 C20.1170089,17.1245202 21.5514958,17.3232116 21.5514958,18.8505045 L21.5514958,47.1418053 L32.2536008,47.1595877 C38.4822575,47.1595877 44.7208012,44.8886989 44.7208012,37.5556242 C44.7208012,33.2295947 41.7349176,29.8823245 37.6021382,29.4063724 Z" id="Fill-4" fill="#FFFFFF"></path>
                </g>
            </g>
        </g>
    </g>
</svg>