<?xml version="1.0" encoding="utf-8"?>
<!-- Generator: Adobe Illustrator 21.1.0, SVG Export Plug-In . SVG Version: 6.00 Build 0)  -->
<svg version="1.1" id="Layer_1" xmlns="http://www.w3.org/2000/svg" xmlns:xlink="http://www.w3.org/1999/xlink" x="0px" y="0px"
	 viewBox="0 0 60 60" style="enable-background:new 0 0 60 60;" xml:space="preserve">
<style type="text/css">
	.st0{fill:#EE0909;}
	.st1{fill:#FFFFFF;}
</style>
<title>logo-tll</title>
<path class="st0" d="M7.7,1h44.6C56,1,59,4,59,7.7v44.6c0,3.7-3,6.7-6.7,6.7H7.7C4,59,1,56,1,52.3V7.7C1,4,4,1,7.7,1z"/>
<g>
	<path class="st1" d="M37.1,12v9.3c0,0-0.3,0.6,2.3-1.1s5.4-4,5.4-4v-3.1h-5.1C39.2,12.1,38.1,11.6,37.1,12z"/>
	<path class="st1" d="M37.1,22.4v9.3c0,0-0.3,0.6,2.3-1.1s5.4-4,5.4-4v-3.1h-5.1C39.2,22.5,38.1,22,37.1,22.4z"/>
	<path class="st1" d="M37.1,32.7V42c0,0-0.3,0.6,2.3-1.1s5.4-4,5.4-4v-3h-5.1C39.2,32.8,38.1,32.3,37.1,32.7z"/>
	<path class="st1" d="M22.9,12v9.3c0,0,0.3,0.6-2.3-1.1s-5.4-4-5.4-4v-3.1h5.1C20.8,12.1,21.9,11.6,22.9,12z"/>
	<path class="st1" d="M22.9,22.4v9.3c0,0,0.3,0.6-2.3-1.1s-5.4-4-5.4-4v-3.1h5.1C20.8,22.5,21.9,22,22.9,22.4z"/>
	<path class="st1" d="M22.9,32.7V42c0,0,0.3,0.6-2.3-1.1s-5.4-4-5.4-4v-3h5.1C20.8,32.8,21.9,32.3,22.9,32.7z"/>
	<path class="st1" d="M33.8,10.6h-7.6c-1.6,0-2.8,1.3-2.8,2.8v28c0,1.4,1,2.6,2.4,2.8v3.7c0.1,0.9,0.9,1.6,1.8,1.5h4.9
		c0.9,0.1,1.7-0.6,1.8-1.5v-3.6c1.4-0.2,2.4-1.4,2.4-2.8v-28C36.7,11.9,35.4,10.6,33.8,10.6C33.8,10.6,33.8,10.6,33.8,10.6z
		 M33.3,40c0,0.3-0.3,0.6-0.6,0.6H27c-0.3,0-0.6-0.3-0.6-0.6v-4.5c0-0.3,0.3-0.5,0.6-0.5h0.6c0.6-0.6,1.4-1,2.3-1.1
		c0.9,0.1,1.7,0.5,2.3,1.1h0.6c0.3,0,0.6,0.3,0.6,0.6l0,0L33.3,40z M33.3,30c0,0.3-0.3,0.6-0.6,0.6H27c-0.3,0-0.6-0.3-0.6-0.6v-4.5
		c0-0.3,0.3-0.6,0.6-0.6h0.6c0.6-0.6,1.4-1,2.3-1.1c0.9,0.1,1.6,0.5,2.3,1.1h0.6c0.3,0,0.6,0.3,0.6,0.6L33.3,30z M33.3,20
		c0,0.3-0.3,0.6-0.6,0.6H27c-0.3,0-0.6-0.3-0.6-0.6v-4.6c0-0.3,0.3-0.6,0.6-0.6h0.6c0.6-0.6,1.4-1,2.3-1.1c0.9,0.1,1.6,0.5,2.3,1.1
		h0.6c0.3,0,0.6,0.3,0.6,0.6L33.3,20z"/>
</g>
</svg>
