<?xml version="1.0" encoding="UTF-8"?>
<svg width="24px" height="24px" viewBox="0 0 24 24" version="1.1" xmlns="http://www.w3.org/2000/svg" xmlns:xlink="http://www.w3.org/1999/xlink">
    <!-- Generator: Sketch 61 (89581) - https://sketch.com -->
    <title>Header / settings-icon / dark</title>
    <desc>Created with Sketch.</desc>
    <defs>
        <polygon id="path-1" points="2.36053738e-05 9.75165744e-05 24 9.75165744e-05 24 23.9996 2.36053738e-05 23.9996"></polygon>
    </defs>
    <g id="Header-/-settings-icon-/-dark" stroke="none" stroke-width="1" fill="none" fill-rule="evenodd">
        <g id="Group-6">
            <path d="M11.9999,16.6078 C9.4559,16.6078 7.3929,14.5448 7.3929,11.9998 C7.3929,9.4558 9.4559,7.3928 11.9999,7.3928 C14.5439,7.3928 16.6079,9.4558 16.6079,11.9998 C16.6079,14.5448 14.5439,16.6078 11.9999,16.6078 M23.3039,9.7818 L22.0329,9.6718 C21.3259,9.6108 20.7109,9.1608 20.4399,8.5038 C20.1679,7.8488 20.2829,7.0948 20.7409,6.5528 L21.5619,5.5758 C20.7139,4.3138 19.6429,3.2578 18.4219,2.4408 L17.4469,3.2608 C16.9039,3.7178 16.1509,3.8328 15.4949,3.5618 C14.8389,3.2898 14.3889,2.6758 14.3279,1.9688 L14.2189,0.6988 C12.7779,0.4148 11.2729,0.4028 9.7819,0.6968 L9.6719,1.9668 C9.6109,2.6738 9.1609,3.2888 8.5039,3.5598 C7.8489,3.8318 7.0949,3.7168 6.5529,3.2598 L5.5759,2.4388 C4.3129,3.2858 3.2579,4.3578 2.4399,5.5778 L3.2609,6.5528 C3.7179,7.0968 3.8329,7.8488 3.5619,8.5048 C3.2899,9.1608 2.6759,9.6108 1.9689,9.6718 L0.6989,9.7818 C0.4149,11.2228 0.4029,12.7268 0.6969,14.2188 L1.9669,14.3278 C2.6739,14.3888 3.2889,14.8388 3.5599,15.4958 C3.8319,16.1508 3.7169,16.9048 3.2599,17.4468 L2.4379,18.4238 C3.2859,19.6868 4.3569,20.7418 5.5779,21.5598 L6.5529,20.7398 C7.0969,20.2818 7.8489,20.1668 8.5049,20.4388 C9.1609,20.7108 9.6109,21.3248 9.6719,22.0308 L9.7819,23.3008 C11.2229,23.5858 12.7269,23.5978 14.2189,23.3028 L14.3279,22.0328 C14.3889,21.3258 14.8389,20.7118 15.4959,20.4398 C16.1509,20.1688 16.9049,20.2828 17.4469,20.7408 L18.4239,21.5618 C19.6869,20.7138 20.7419,19.6428 21.5599,18.4218 L20.7399,17.4468 C20.2819,16.9038 20.1669,16.1508 20.4389,15.4948 C20.7109,14.8388 21.3249,14.3888 22.0309,14.3278 L23.3009,14.2188 C23.5859,12.7778 23.5969,11.2738 23.3039,9.7818" id="Fill-1" fill="#07142D"></path>
            <g id="Group-5" transform="translate(0.000000, -0.000100)">
                <mask id="mask-2" fill="white">
                    <use xlink:href="#path-1"></use>
                </mask>
                <g id="Clip-4"></g>
                <path d="M11.9999,7.8726 C9.7239,7.8726 7.8729,9.7246 7.8729,12.0006 C7.8729,14.2766 9.7239,16.1276 11.9999,16.1276 C14.2759,16.1276 16.1279,14.2766 16.1279,12.0006 C16.1279,9.7246 14.2759,7.8726 11.9999,7.8726 L11.9999,7.8726 Z M11.9999,17.0876 C9.1949,17.0876 6.9129,14.8056 6.9129,12.0006 C6.9129,9.1956 9.1949,6.9126 11.9999,6.9126 C14.8049,6.9126 17.0879,9.1956 17.0879,12.0006 C17.0879,14.8056 14.8049,17.0876 11.9999,17.0876 L11.9999,17.0876 Z M10.2279,22.8946 C11.4069,23.0886 12.5969,23.0876 13.7719,22.8956 L13.8499,21.9926 C13.9259,21.1026 14.4869,20.3386 15.3129,19.9966 C16.1369,19.6536 17.0739,19.7986 17.7569,20.3736 L18.4519,20.9586 C19.4199,20.2626 20.2599,19.4206 20.9559,18.4496 L20.3729,17.7566 C19.7979,17.0736 19.6539,16.1366 19.9949,15.3116 C20.3369,14.4866 21.1009,13.9276 21.9889,13.8506 L22.8949,13.7716 C23.0879,12.5926 23.0889,11.4046 22.8959,10.2276 L21.9919,10.1506 C21.1009,10.0736 20.3359,9.5126 19.9959,8.6866 C19.6539,7.8626 19.7979,6.9256 20.3739,6.2436 L20.9579,5.5486 C20.2619,4.5806 19.4199,3.7406 18.4499,3.0436 L17.7559,3.6276 C17.0739,4.2026 16.1369,4.3476 15.3119,4.0046 C14.4859,3.6626 13.9259,2.8986 13.8499,2.0106 L13.7719,1.1056 C12.5929,0.9126 11.4039,0.9116 10.2279,1.1036 L10.1499,2.0086 C10.0739,2.8976 9.5129,3.6616 8.6879,4.0036 C7.8599,4.3456 6.9259,4.2006 6.2439,3.6266 L5.5479,3.0416 C4.5809,3.7386 3.7399,4.5796 3.0439,5.5506 L3.6269,6.2446 C4.2019,6.9266 4.3469,7.8636 4.0049,8.6886 C3.6629,9.5136 2.8989,10.0736 2.0109,10.1506 L1.1059,10.2276 C0.9129,11.4076 0.9119,12.5966 1.1039,13.7716 L2.0079,13.8506 C2.8969,13.9266 3.6619,14.4876 4.0029,15.3126 C4.3459,16.1376 4.2009,17.0746 3.6269,17.7566 L3.0419,18.4516 C3.7379,19.4196 4.5799,20.2606 5.5499,20.9556 L6.2439,20.3726 C6.9259,19.7976 7.8639,19.6536 8.6889,19.9956 C9.5139,20.3376 10.0739,21.1016 10.1499,21.9896 L10.2279,22.8946 Z M12.0039,23.9996 C11.2309,23.9996 10.4579,23.9236 9.6879,23.7726 L9.3339,23.7026 L9.1939,22.0726 C9.1479,21.5426 8.8139,21.0866 8.3209,20.8826 C7.8289,20.6776 7.2699,20.7646 6.8619,21.1066 L5.6109,22.1596 L5.3119,21.9586 C4.0109,21.0876 2.9099,19.9886 2.0399,18.6916 L1.8379,18.3916 L2.8919,17.1386 C3.2349,16.7316 3.3209,16.1726 3.1169,15.6796 C2.9129,15.1866 2.4569,14.8516 1.9249,14.8066 L0.2949,14.6656 L0.2259,14.3116 C-0.0761,12.7806 -0.0751,11.2246 0.2279,9.6886 L0.2979,9.3346 L1.9279,9.1946 C2.4579,9.1486 2.9139,8.8136 3.1179,8.3216 C3.3229,7.8286 3.2359,7.2696 2.8929,6.8616 L1.8409,5.6116 L2.0419,5.3116 C2.9129,4.0116 4.0119,2.9106 5.3089,2.0396 L5.6079,1.8376 L6.8619,2.8926 C7.2689,3.2356 7.8289,3.3216 8.3199,3.1166 C8.8129,2.9126 9.1479,2.4566 9.1939,1.9256 L9.3339,0.2956 L9.6879,0.2256 C11.2199,-0.0764 12.7749,-0.0744 14.3119,0.2276 L14.6659,0.2986 L14.8059,1.9286 C14.8519,2.4576 15.1859,2.9136 15.6789,3.1186 C16.1719,3.3216 16.7309,3.2366 17.1389,2.8936 L18.3889,1.8406 L18.6889,2.0416 C19.9889,2.9136 21.0899,4.0126 21.9599,5.3086 L22.1619,5.6086 L21.1079,6.8616 C20.7649,7.2686 20.6789,7.8276 20.8829,8.3206 C21.0869,8.8136 21.5429,9.1486 22.0749,9.1946 L23.7049,9.3346 L23.7739,9.6886 C24.0759,11.2196 24.0759,12.7756 23.7719,14.3116 L23.7019,14.6656 L22.0719,14.8066 C21.5419,14.8516 21.0859,15.1866 20.8819,15.6786 C20.6779,16.1716 20.7639,16.7306 21.1069,17.1386 L22.1589,18.3896 L21.9579,18.6886 C21.0879,19.9896 19.9889,21.0896 18.6919,21.9606 L18.3919,22.1626 L17.1389,21.1076 C16.7319,20.7646 16.1729,20.6806 15.6799,20.8836 C15.1869,21.0876 14.8519,21.5436 14.8059,22.0746 L14.6659,23.7036 L14.3119,23.7736 C13.5469,23.9246 12.7749,23.9996 12.0039,23.9996 L12.0039,23.9996 Z" id="Fill-3" fill="#FFFFFF" mask="url(#mask-2)"></path>
            </g>
        </g>
    </g>
</svg>