<?xml version="1.0" encoding="utf-8"?>
<!-- Generator: Adobe Illustrator 21.1.0, SVG Export Plug-In . SVG Version: 6.00 Build 0)  -->
<svg version="1.1" id="Layer_1" xmlns="http://www.w3.org/2000/svg" xmlns:xlink="http://www.w3.org/1999/xlink" x="0px" y="0px"
	 viewBox="0 0 44 44" style="enable-background:new 0 0 44 44;" xml:space="preserve">
<style type="text/css">
	.st0{fill:#FFFFFF;}
</style>
<title>trackermain-window</title>
<g id="Layer_2">
	<g id="Layer_1-2">
		<path class="st0" d="M22,43c-0.3,0-0.6-0.3-0.6-0.6v-4.3L20.5,38C12.8,37.3,6.7,31.2,6,23.5l-0.1-0.9H1.6C1.3,22.6,1,22.3,1,22
			c0-0.3,0.2-0.6,0.6-0.6c0,0,0,0,0,0h4.3L6,20.5C6.7,12.8,12.8,6.7,20.5,6l0.9-0.1V1.6c0-0.3,0.2-0.6,0.5-0.7
			c0.3,0,0.6,0.2,0.7,0.5c0,0.1,0,0.1,0,0.2v4.3L23.5,6c7.7,0.7,13.9,6.8,14.5,14.6l0.1,0.9h4.3c0.3,0,0.6,0.2,0.7,0.5
			c0,0.3-0.2,0.6-0.5,0.7c-0.1,0-0.1,0-0.2,0h-4.3L38,23.5c-0.7,7.7-6.8,13.9-14.6,14.5l-0.9,0.1v4.3C22.6,42.7,22.4,43,22,43
			C22,43,22,43,22,43z M7.2,23.6C8,30.6,13.4,36,20.3,36.8l1,0.1V34c0-0.3,0.3-0.6,0.7-0.5c0.3,0,0.5,0.3,0.5,0.5v3l1-0.1
			c7-0.8,12.5-6.3,13.2-13.2l0.1-1H34c-0.3,0-0.6-0.3-0.5-0.7c0-0.3,0.3-0.5,0.5-0.5h3l-0.1-1c-0.8-7-6.3-12.5-13.2-13.2l-1-0.1V10
			c0,0.3-0.2,0.6-0.5,0.7c-0.3,0-0.6-0.2-0.7-0.5c0-0.1,0-0.1,0-0.2V7l-1,0.1c-7,0.8-12.5,6.3-13.2,13.2l-0.1,1H10
			c0.3,0,0.6,0.3,0.6,0.6c0,0.3-0.3,0.6-0.6,0.6H7L7.2,23.6z"/>
	</g>
</g>
</svg>
