<svg xmlns="http://www.w3.org/2000/svg" viewBox="0 0 38 38"><defs><style>.cls-1{fill:#b0b0b0;}</style></defs><title>tracker-detector</title><g id="Layer_2" data-name="Layer 2"><g id="Layer_1-2" data-name="Layer 1"><path class="cls-1" d="M37,18H33.65l0-.34A14.6,14.6,0,0,0,20.34,4.38l-.34,0V1a1,1,0,1,0-2,0V4.35l-.34,0A14.6,14.6,0,0,0,4.38,17.66l0,.34H1a1,1,0,0,0-1,1,1,1,0,0,0,1,1H4.35l0,.34A14.6,14.6,0,0,0,17.66,33.62l.34,0V37a1,1,0,0,0,2,0V33.65l.34,0A14.6,14.6,0,0,0,33.62,20.34l0-.34H37a1,1,0,0,0,0-2ZM19,28.56a1,1,0,0,0-1,1v2.11l-.41,0A12.72,12.72,0,0,1,6.38,20.41l0-.41h2.1a1,1,0,0,0,1-1,1,1,0,0,0-1-1H6.34l0-.41A12.72,12.72,0,0,1,17.59,6.38l.41,0v2.1a1,1,0,0,0,1,1,1,1,0,0,0,1-1V6.34l.41,0a12.72,12.72,0,0,1,11.2,11.21l0,.41H29.56a1,1,0,0,0,0,2h2.11l0,.41a12.72,12.72,0,0,1-11.21,11.2l-.41,0V29.56A1,1,0,0,0,19,28.56Z"/><polygon class="cls-1" points="19.88 21.88 20.16 12.17 17.84 12.17 18.12 21.88 19.88 21.88"/><path class="cls-1" d="M19,23a1.37,1.37,0,0,0-1.37,1.43,1.37,1.37,0,1,0,2.74,0A1.34,1.34,0,0,0,19,23Z"/></g></g></svg>